<mxfile host="app.diagrams.net" modified="2023-09-18T17:59:03.668Z" agent="Mozilla/5.0 (Macintosh; Intel Mac OS X 10_15_7) AppleWebKit/605.1.15 (KHTML, like Gecko) Version/16.5 Safari/605.1.15" etag="AJoEEj5nXi27hqZXq8gg" version="21.6.9">
  <diagram name="Page-1" id="wh5HwuLDngA0fhQpGGUg">
    <mxGraphModel dx="1188" dy="914" grid="1" gridSize="10" guides="1" tooltips="1" connect="1" arrows="1" fold="1" page="1" pageScale="1" pageWidth="850" pageHeight="1100" math="0" shadow="0">
      <root>
        <mxCell id="0" />
        <mxCell id="1" parent="0" />
        <mxCell id="3vO8d3pVUf_MaTHMhJCO-4" value="" style="edgeStyle=orthogonalEdgeStyle;rounded=0;orthogonalLoop=1;jettySize=auto;html=1;" edge="1" parent="1" source="3vO8d3pVUf_MaTHMhJCO-1" target="3vO8d3pVUf_MaTHMhJCO-2">
          <mxGeometry relative="1" as="geometry" />
        </mxCell>
        <mxCell id="3vO8d3pVUf_MaTHMhJCO-1" value="Start" style="ellipse;whiteSpace=wrap;html=1;" vertex="1" parent="1">
          <mxGeometry x="365" y="10" width="135" height="80" as="geometry" />
        </mxCell>
        <mxCell id="3vO8d3pVUf_MaTHMhJCO-6" value="" style="edgeStyle=orthogonalEdgeStyle;rounded=0;orthogonalLoop=1;jettySize=auto;html=1;" edge="1" parent="1" source="3vO8d3pVUf_MaTHMhJCO-2" target="3vO8d3pVUf_MaTHMhJCO-5">
          <mxGeometry relative="1" as="geometry" />
        </mxCell>
        <mxCell id="3vO8d3pVUf_MaTHMhJCO-2" value="Ask user for number of scores" style="shape=parallelogram;perimeter=parallelogramPerimeter;whiteSpace=wrap;html=1;fixedSize=1;" vertex="1" parent="1">
          <mxGeometry x="336.88" y="140" width="191.25" height="80" as="geometry" />
        </mxCell>
        <mxCell id="3vO8d3pVUf_MaTHMhJCO-25" value="" style="edgeStyle=orthogonalEdgeStyle;rounded=0;orthogonalLoop=1;jettySize=auto;html=1;" edge="1" parent="1" source="3vO8d3pVUf_MaTHMhJCO-5" target="3vO8d3pVUf_MaTHMhJCO-24">
          <mxGeometry relative="1" as="geometry">
            <Array as="points">
              <mxPoint x="433" y="340" />
              <mxPoint x="433" y="340" />
            </Array>
          </mxGeometry>
        </mxCell>
        <mxCell id="3vO8d3pVUf_MaTHMhJCO-5" value="create empty list (scores)" style="rounded=0;whiteSpace=wrap;html=1;" vertex="1" parent="1">
          <mxGeometry x="372.5" y="260" width="120" height="60" as="geometry" />
        </mxCell>
        <mxCell id="3vO8d3pVUf_MaTHMhJCO-10" value="" style="edgeStyle=orthogonalEdgeStyle;rounded=0;orthogonalLoop=1;jettySize=auto;html=1;" edge="1" parent="1" source="3vO8d3pVUf_MaTHMhJCO-8" target="3vO8d3pVUf_MaTHMhJCO-9">
          <mxGeometry relative="1" as="geometry" />
        </mxCell>
        <mxCell id="3vO8d3pVUf_MaTHMhJCO-8" value="get_scores(num_scores,scoreList)" style="ellipse;whiteSpace=wrap;html=1;" vertex="1" parent="1">
          <mxGeometry x="625" y="10" width="190" height="90" as="geometry" />
        </mxCell>
        <mxCell id="3vO8d3pVUf_MaTHMhJCO-12" value="" style="edgeStyle=orthogonalEdgeStyle;rounded=0;orthogonalLoop=1;jettySize=auto;html=1;" edge="1" parent="1" source="3vO8d3pVUf_MaTHMhJCO-9" target="3vO8d3pVUf_MaTHMhJCO-11">
          <mxGeometry relative="1" as="geometry" />
        </mxCell>
        <mxCell id="3vO8d3pVUf_MaTHMhJCO-9" value="more scores" style="rhombus;whiteSpace=wrap;html=1;" vertex="1" parent="1">
          <mxGeometry x="645" y="170" width="150" height="130" as="geometry" />
        </mxCell>
        <mxCell id="3vO8d3pVUf_MaTHMhJCO-14" value="" style="edgeStyle=orthogonalEdgeStyle;rounded=0;orthogonalLoop=1;jettySize=auto;html=1;" edge="1" parent="1" source="3vO8d3pVUf_MaTHMhJCO-11" target="3vO8d3pVUf_MaTHMhJCO-13">
          <mxGeometry relative="1" as="geometry" />
        </mxCell>
        <mxCell id="3vO8d3pVUf_MaTHMhJCO-11" value="enter a score" style="shape=parallelogram;perimeter=parallelogramPerimeter;whiteSpace=wrap;html=1;fixedSize=1;" vertex="1" parent="1">
          <mxGeometry x="660" y="350" width="120" height="60" as="geometry" />
        </mxCell>
        <mxCell id="3vO8d3pVUf_MaTHMhJCO-16" value="" style="edgeStyle=orthogonalEdgeStyle;rounded=0;orthogonalLoop=1;jettySize=auto;html=1;entryX=1;entryY=0.5;entryDx=0;entryDy=0;" edge="1" parent="1" source="3vO8d3pVUf_MaTHMhJCO-13" target="3vO8d3pVUf_MaTHMhJCO-9">
          <mxGeometry relative="1" as="geometry">
            <mxPoint x="820" y="230" as="targetPoint" />
            <Array as="points">
              <mxPoint x="815" y="480" />
              <mxPoint x="815" y="235" />
            </Array>
          </mxGeometry>
        </mxCell>
        <mxCell id="3vO8d3pVUf_MaTHMhJCO-20" value="" style="edgeStyle=orthogonalEdgeStyle;rounded=0;orthogonalLoop=1;jettySize=auto;html=1;" edge="1" parent="1" source="3vO8d3pVUf_MaTHMhJCO-13" target="3vO8d3pVUf_MaTHMhJCO-19">
          <mxGeometry relative="1" as="geometry" />
        </mxCell>
        <mxCell id="3vO8d3pVUf_MaTHMhJCO-13" value="append to list of scores" style="rounded=0;whiteSpace=wrap;html=1;" vertex="1" parent="1">
          <mxGeometry x="660" y="450" width="120" height="60" as="geometry" />
        </mxCell>
        <mxCell id="3vO8d3pVUf_MaTHMhJCO-17" value="Yes&lt;br&gt;" style="text;html=1;align=center;verticalAlign=middle;resizable=0;points=[];autosize=1;strokeColor=none;fillColor=none;" vertex="1" parent="1">
          <mxGeometry x="701" y="298" width="40" height="30" as="geometry" />
        </mxCell>
        <mxCell id="3vO8d3pVUf_MaTHMhJCO-22" value="" style="edgeStyle=orthogonalEdgeStyle;rounded=0;orthogonalLoop=1;jettySize=auto;html=1;" edge="1" parent="1" source="3vO8d3pVUf_MaTHMhJCO-19">
          <mxGeometry relative="1" as="geometry">
            <mxPoint x="600" y="230" as="targetPoint" />
          </mxGeometry>
        </mxCell>
        <mxCell id="3vO8d3pVUf_MaTHMhJCO-19" value="return scoresList" style="ellipse;whiteSpace=wrap;html=1;" vertex="1" parent="1">
          <mxGeometry x="660" y="550" width="120" height="80" as="geometry" />
        </mxCell>
        <mxCell id="3vO8d3pVUf_MaTHMhJCO-32" value="" style="edgeStyle=orthogonalEdgeStyle;rounded=0;orthogonalLoop=1;jettySize=auto;html=1;" edge="1" parent="1" source="3vO8d3pVUf_MaTHMhJCO-23" target="3vO8d3pVUf_MaTHMhJCO-9">
          <mxGeometry relative="1" as="geometry" />
        </mxCell>
        <mxCell id="3vO8d3pVUf_MaTHMhJCO-23" value="No" style="text;html=1;align=center;verticalAlign=middle;resizable=0;points=[];autosize=1;strokeColor=none;fillColor=none;" vertex="1" parent="1">
          <mxGeometry x="581" y="218" width="40" height="30" as="geometry" />
        </mxCell>
        <mxCell id="3vO8d3pVUf_MaTHMhJCO-27" value="" style="edgeStyle=orthogonalEdgeStyle;rounded=0;orthogonalLoop=1;jettySize=auto;html=1;" edge="1" parent="1" source="3vO8d3pVUf_MaTHMhJCO-24" target="3vO8d3pVUf_MaTHMhJCO-26">
          <mxGeometry relative="1" as="geometry" />
        </mxCell>
        <mxCell id="3vO8d3pVUf_MaTHMhJCO-24" value="call get_scores(num of scores, empty list)" style="shape=process;whiteSpace=wrap;html=1;backgroundOutline=1;" vertex="1" parent="1">
          <mxGeometry x="372.51" y="370" width="120" height="60" as="geometry" />
        </mxCell>
        <mxCell id="3vO8d3pVUf_MaTHMhJCO-29" value="" style="edgeStyle=orthogonalEdgeStyle;rounded=0;orthogonalLoop=1;jettySize=auto;html=1;" edge="1" parent="1" source="3vO8d3pVUf_MaTHMhJCO-26" target="3vO8d3pVUf_MaTHMhJCO-28">
          <mxGeometry relative="1" as="geometry" />
        </mxCell>
        <mxCell id="3vO8d3pVUf_MaTHMhJCO-26" value="Calculate scores average" style="rounded=0;whiteSpace=wrap;html=1;" vertex="1" parent="1">
          <mxGeometry x="372.51" y="480" width="120" height="60" as="geometry" />
        </mxCell>
        <mxCell id="3vO8d3pVUf_MaTHMhJCO-31" value="" style="edgeStyle=orthogonalEdgeStyle;rounded=0;orthogonalLoop=1;jettySize=auto;html=1;" edge="1" parent="1" source="3vO8d3pVUf_MaTHMhJCO-28" target="3vO8d3pVUf_MaTHMhJCO-30">
          <mxGeometry relative="1" as="geometry" />
        </mxCell>
        <mxCell id="3vO8d3pVUf_MaTHMhJCO-28" value="display results" style="shape=parallelogram;perimeter=parallelogramPerimeter;whiteSpace=wrap;html=1;fixedSize=1;" vertex="1" parent="1">
          <mxGeometry x="372.5" y="570" width="120" height="60" as="geometry" />
        </mxCell>
        <mxCell id="3vO8d3pVUf_MaTHMhJCO-30" value="end" style="ellipse;whiteSpace=wrap;html=1;" vertex="1" parent="1">
          <mxGeometry x="372.51" y="680" width="120" height="80" as="geometry" />
        </mxCell>
      </root>
    </mxGraphModel>
  </diagram>
</mxfile>
